<?xml version="1.0" encoding="UTF-8" standalone="no"?>
<svg width="26px" height="17px" viewBox="0 0 26 17" version="1.1" xmlns="http://www.w3.org/2000/svg" xmlns:xlink="http://www.w3.org/1999/xlink">
    <!-- Generator: Sketch 3.8.3 (29802) - http://www.bohemiancoding.com/sketch -->
    <title>ansi</title>
    <desc>Created with Sketch.</desc>
    <defs></defs>
    <g id="Site" stroke="none" stroke-width="1" fill="none" fill-rule="evenodd">
        <g id="Projects" transform="translate(-1131.000000, -1334.000000)" fill="#DC3D1D">
            <g id="Footer" transform="translate(655.000000, 1333.828125)">
                <path d="M482.75,12.4375 L483.75,12.4375 L483.75,13.4375 L482.75,13.4375 L482.75,12.4375 Z M482.75,8.4375 L483.75,8.4375 L483.75,9.4375 L482.75,9.4375 L482.75,8.4375 Z M482.75,4.4375 L483.75,4.4375 L483.75,5.4375 L482.75,5.4375 L482.75,4.4375 Z M482.75,2.4375 L483.75,2.4375 L483.75,3.4375 L482.75,3.4375 L482.75,2.4375 Z M482.75,6.4375 L483.75,6.4375 L483.75,7.4375 L482.75,7.4375 L482.75,6.4375 Z M482.75,10.4375 L483.75,10.4375 L483.75,11.4375 L482.75,11.4375 L482.75,10.4375 Z M482.75,14.4375 L483.75,14.4375 L483.75,15.4375 L482.75,15.4375 L482.75,14.4375 Z M482.75,0.4375 L483.75,0.4375 L483.75,1.4375 L482.75,1.4375 L482.75,0.4375 Z M480.75,13.4375 L481.75,13.4375 L481.75,14.4375 L480.75,14.4375 L480.75,13.4375 Z M480.75,9.4375 L481.75,9.4375 L481.75,10.4375 L480.75,10.4375 L480.75,9.4375 Z M480.75,5.4375 L481.75,5.4375 L481.75,6.4375 L480.75,6.4375 L480.75,5.4375 Z M480.75,3.4375 L481.75,3.4375 L481.75,4.4375 L480.75,4.4375 L480.75,3.4375 Z M480.75,7.4375 L481.75,7.4375 L481.75,8.4375 L480.75,8.4375 L480.75,7.4375 Z M480.75,11.4375 L481.75,11.4375 L481.75,12.4375 L480.75,12.4375 L480.75,11.4375 Z M480.75,15.4375 L481.75,15.4375 L481.75,16.4375 L480.75,16.4375 L480.75,15.4375 Z M480.75,1.4375 L481.75,1.4375 L481.75,2.4375 L480.75,2.4375 L480.75,1.4375 Z M478.75,12.4375 L479.75,12.4375 L479.75,13.4375 L478.75,13.4375 L478.75,12.4375 Z M478.75,8.4375 L479.75,8.4375 L479.75,9.4375 L478.75,9.4375 L478.75,8.4375 Z M478.75,4.4375 L479.75,4.4375 L479.75,5.4375 L478.75,5.4375 L478.75,4.4375 Z M478.75,2.4375 L479.75,2.4375 L479.75,3.4375 L478.75,3.4375 L478.75,2.4375 Z M478.75,6.4375 L479.75,6.4375 L479.75,7.4375 L478.75,7.4375 L478.75,6.4375 Z M478.75,10.4375 L479.75,10.4375 L479.75,11.4375 L478.75,11.4375 L478.75,10.4375 Z M478.75,14.4375 L479.75,14.4375 L479.75,15.4375 L478.75,15.4375 L478.75,14.4375 Z M478.75,0.4375 L479.75,0.4375 L479.75,1.4375 L478.75,1.4375 L478.75,0.4375 Z M476.75,13.4375 L477.75,13.4375 L477.75,14.4375 L476.75,14.4375 L476.75,13.4375 Z M476.75,9.4375 L477.75,9.4375 L477.75,10.4375 L476.75,10.4375 L476.75,9.4375 Z M476.75,5.4375 L477.75,5.4375 L477.75,6.4375 L476.75,6.4375 L476.75,5.4375 Z M476.75,3.4375 L477.75,3.4375 L477.75,4.4375 L476.75,4.4375 L476.75,3.4375 Z M476.75,7.4375 L477.75,7.4375 L477.75,8.4375 L476.75,8.4375 L476.75,7.4375 Z M476.75,11.4375 L477.75,11.4375 L477.75,12.4375 L476.75,12.4375 L476.75,11.4375 Z M476.75,15.4375 L477.75,15.4375 L477.75,16.4375 L476.75,16.4375 L476.75,15.4375 Z M476.75,1.4375 L477.75,1.4375 L477.75,2.4375 L476.75,2.4375 L476.75,1.4375 Z M490.757812,15.4375 L491.75,15.4375 L491.757812,15.4453125 L491.757812,16.4375 L490.757812,16.4375 L490.757812,15.4375 Z M491.757812,14.4375 L492.75,14.4375 L492.757812,14.4453125 L492.75,15.4375 L491.757812,15.4375 L491.757812,14.4375 Z M488.757812,15.4375 L489.75,15.4375 L489.757812,15.4453125 L489.757812,16.4375 L488.757812,16.4375 L488.757812,15.4375 Z M489.757812,14.4375 L490.75,14.4375 L490.757812,14.4453125 L490.75,15.4375 L489.757812,15.4375 L489.757812,14.4375 Z M486.757812,15.4375 L487.75,15.4375 L487.757812,15.4453125 L487.757812,16.4375 L486.757812,16.4375 L486.757812,15.4375 Z M487.757812,14.4375 L488.75,14.4375 L488.757812,14.4453125 L488.75,15.4375 L487.757812,15.4375 L487.757812,14.4375 Z M484.75,15.4375 L485.742188,15.4375 L485.75,15.4453125 L485.75,16.4375 L484.75,16.4375 L484.75,15.4375 Z M485.75,14.4375 L486.742188,14.4375 L486.75,14.4453125 L486.742188,15.4375 L485.75,15.4375 L485.75,14.4375 Z M490.757812,13.4375 L491.75,13.4375 L491.757812,13.4453125 L491.757812,14.4375 L490.757812,14.4375 L490.757812,13.4375 Z M491.757812,12.4375 L492.75,12.4375 L492.757812,12.4453125 L492.75,13.4375 L491.757812,13.4375 L491.757812,12.4375 Z M488.757812,13.4375 L489.75,13.4375 L489.757812,13.4453125 L489.757812,14.4375 L488.757812,14.4375 L488.757812,13.4375 Z M489.757812,12.4375 L490.75,12.4375 L490.757812,12.4453125 L490.75,13.4375 L489.757812,13.4375 L489.757812,12.4375 Z M486.757812,13.4375 L487.75,13.4375 L487.757812,13.4453125 L487.757812,14.4375 L486.757812,14.4375 L486.757812,13.4375 Z M487.757812,12.4375 L488.75,12.4375 L488.757812,12.4453125 L488.75,13.4375 L487.757812,13.4375 L487.757812,12.4375 Z M484.75,13.4375 L485.742188,13.4375 L485.75,13.4453125 L485.75,14.4375 L484.75,14.4375 L484.75,13.4375 Z M485.75,12.4375 L486.742188,12.4375 L486.75,12.4453125 L486.742188,13.4375 L485.75,13.4375 L485.75,12.4375 Z M490.757812,11.4375 L491.75,11.4375 L491.757812,11.4453125 L491.757812,12.4375 L490.757812,12.4375 L490.757812,11.4375 Z M491.757812,10.4375 L492.75,10.4375 L492.757812,10.4453125 L492.75,11.4375 L491.757812,11.4375 L491.757812,10.4375 Z M488.757812,11.4375 L489.75,11.4375 L489.757812,11.4453125 L489.757812,12.4375 L488.757812,12.4375 L488.757812,11.4375 Z M489.757812,10.4375 L490.75,10.4375 L490.757812,10.4453125 L490.75,11.4375 L489.757812,11.4375 L489.757812,10.4375 Z M486.757812,11.4375 L487.75,11.4375 L487.757812,11.4453125 L487.757812,12.4375 L486.757812,12.4375 L486.757812,11.4375 Z M487.757812,10.4375 L488.75,10.4375 L488.757812,10.4453125 L488.75,11.4375 L487.757812,11.4375 L487.757812,10.4375 Z M484.75,11.4375 L485.742188,11.4375 L485.75,11.4453125 L485.75,12.4375 L484.75,12.4375 L484.75,11.4375 Z M485.75,10.4375 L486.742188,10.4375 L486.75,10.4453125 L486.742188,11.4375 L485.75,11.4375 L485.75,10.4375 Z M490.757812,9.4375 L491.75,9.4375 L491.757812,9.4453125 L491.757812,10.4375 L490.757812,10.4375 L490.757812,9.4375 Z M491.757812,8.4375 L492.75,8.4375 L492.757812,8.4453125 L492.75,9.4375 L491.757812,9.4375 L491.757812,8.4375 Z M488.757812,9.4375 L489.75,9.4375 L489.757812,9.4453125 L489.757812,10.4375 L488.757812,10.4375 L488.757812,9.4375 Z M489.757812,8.4375 L490.75,8.4375 L490.757812,8.4453125 L490.75,9.4375 L489.757812,9.4375 L489.757812,8.4375 Z M486.757812,9.4375 L487.75,9.4375 L487.757812,9.4453125 L487.757812,10.4375 L486.757812,10.4375 L486.757812,9.4375 Z M487.757812,8.4375 L488.75,8.4375 L488.757812,8.4453125 L488.75,9.4375 L487.757812,9.4375 L487.757812,8.4375 Z M484.75,9.4375 L485.742188,9.4375 L485.75,9.4453125 L485.75,10.4375 L484.75,10.4375 L484.75,9.4375 Z M485.75,8.4375 L486.742188,8.4375 L486.75,8.4453125 L486.742188,9.4375 L485.75,9.4375 L485.75,8.4375 Z M490.757812,7.4375 L491.75,7.4375 L491.757812,7.4453125 L491.757812,8.4375 L490.757812,8.4375 L490.757812,7.4375 Z M491.757812,6.4375 L492.75,6.4375 L492.757812,6.4453125 L492.75,7.4375 L491.757812,7.4375 L491.757812,6.4375 Z M488.757812,7.4375 L489.75,7.4375 L489.757812,7.4453125 L489.757812,8.4375 L488.757812,8.4375 L488.757812,7.4375 Z M489.757812,6.4375 L490.75,6.4375 L490.757812,6.4453125 L490.75,7.4375 L489.757812,7.4375 L489.757812,6.4375 Z M486.757812,7.4375 L487.75,7.4375 L487.757812,7.4453125 L487.757812,8.4375 L486.757812,8.4375 L486.757812,7.4375 Z M487.757812,6.4375 L488.75,6.4375 L488.757812,6.4453125 L488.75,7.4375 L487.757812,7.4375 L487.757812,6.4375 Z M484.75,7.4375 L485.742188,7.4375 L485.75,7.4453125 L485.75,8.4375 L484.75,8.4375 L484.75,7.4375 Z M485.75,6.4375 L486.742188,6.4375 L486.75,6.4453125 L486.742188,7.4375 L485.75,7.4375 L485.75,6.4375 Z M490.757812,5.4375 L491.75,5.4375 L491.757812,5.4453125 L491.757812,6.4375 L490.757812,6.4375 L490.757812,5.4375 Z M491.757812,4.4375 L492.75,4.4375 L492.757812,4.4453125 L492.75,5.4375 L491.757812,5.4375 L491.757812,4.4375 Z M488.757812,5.4375 L489.75,5.4375 L489.757812,5.4453125 L489.757812,6.4375 L488.757812,6.4375 L488.757812,5.4375 Z M489.757812,4.4375 L490.75,4.4375 L490.757812,4.4453125 L490.75,5.4375 L489.757812,5.4375 L489.757812,4.4375 Z M486.757812,5.4375 L487.75,5.4375 L487.757812,5.4453125 L487.757812,6.4375 L486.757812,6.4375 L486.757812,5.4375 Z M487.757812,4.4375 L488.75,4.4375 L488.757812,4.4453125 L488.75,5.4375 L487.757812,5.4375 L487.757812,4.4375 Z M484.75,5.4375 L485.742188,5.4375 L485.75,5.4453125 L485.75,6.4375 L484.75,6.4375 L484.75,5.4375 Z M485.75,4.4375 L486.742188,4.4375 L486.75,4.4453125 L486.742188,5.4375 L485.75,5.4375 L485.75,4.4375 Z M490.757812,3.4375 L491.75,3.4375 L491.757812,3.4453125 L491.757812,4.4375 L490.757812,4.4375 L490.757812,3.4375 Z M491.757812,2.4375 L492.75,2.4375 L492.757812,2.4453125 L492.75,3.4375 L491.757812,3.4375 L491.757812,2.4375 Z M488.757812,3.4375 L489.75,3.4375 L489.757812,3.4453125 L489.757812,4.4375 L488.757812,4.4375 L488.757812,3.4375 Z M489.757812,2.4375 L490.75,2.4375 L490.757812,2.4453125 L490.75,3.4375 L489.757812,3.4375 L489.757812,2.4375 Z M486.757812,3.4375 L487.75,3.4375 L487.757812,3.4453125 L487.757812,4.4375 L486.757812,4.4375 L486.757812,3.4375 Z M487.757812,2.4375 L488.75,2.4375 L488.757812,2.4453125 L488.75,3.4375 L487.757812,3.4375 L487.757812,2.4375 Z M484.75,3.4375 L485.742188,3.4375 L485.75,3.4453125 L485.75,4.4375 L484.75,4.4375 L484.75,3.4375 Z M485.75,2.4375 L486.742188,2.4375 L486.75,2.4453125 L486.742188,3.4375 L485.75,3.4375 L485.75,2.4375 Z M490.75,1.4375 L491.742188,1.4375 L491.75,1.4453125 L491.75,2.4375 L490.75,2.4375 L490.75,1.4375 Z M491.75,0.4375 L492.75,0.4375 L492.75,1.4375 L491.75,1.4375 L491.75,0.4375 Z M488.75,1.4375 L489.742188,1.4375 L489.75,1.4453125 L489.75,2.4375 L488.75,2.4375 L488.75,1.4375 Z M489.75,0.4375 L490.75,0.4375 L490.75,1.4375 L489.75,1.4375 L489.75,0.4375 Z M486.75,1.4375 L487.742188,1.4375 L487.75,1.4453125 L487.75,2.4375 L486.75,2.4375 L486.75,1.4375 Z M487.75,0.4375 L488.75,0.4375 L488.75,1.4375 L487.75,1.4375 L487.75,0.4375 Z M484.75,1.4375 L485.742188,1.4375 L485.75,1.4453125 L485.75,2.4375 L484.75,2.4375 L484.75,1.4375 Z M485.75,0.4375 L486.75,0.4375 L486.75,1.4375 L485.75,1.4375 L485.75,0.4375 Z M500.75,3.4375 L500.75,2.4375 L499.75,2.4375 L499.75,3.4375 L500.75,3.4375 Z M500.75,7.4375 L500.75,6.4375 L499.75,6.4375 L499.75,7.4375 L500.75,7.4375 Z M500.75,11.4375 L500.75,10.4375 L499.75,10.4375 L499.75,11.4375 L500.75,11.4375 Z M500.75,15.4375 L500.75,14.4375 L499.75,14.4375 L499.75,15.4375 L500.75,15.4375 Z M498.75,14.4375 L498.75,13.4375 L497.75,13.4375 L497.75,14.4375 L498.75,14.4375 Z M498.75,10.4375 L498.75,9.4375 L497.75,9.4375 L497.75,10.4375 L498.75,10.4375 Z M498.75,6.4375 L498.75,5.4375 L497.75,5.4375 L497.75,6.4375 L498.75,6.4375 Z M498.75,2.4375 L498.75,1.4375 L497.75,1.4375 L497.75,2.4375 L498.75,2.4375 Z M496.75,9.4375 L496.75,8.4375 L495.75,8.4375 L495.75,9.4375 L496.75,9.4375 Z M496.75,13.4375 L496.75,12.4375 L495.75,12.4375 L495.75,13.4375 L496.75,13.4375 Z M496.75,5.4375 L496.75,4.4375 L495.75,4.4375 L495.75,5.4375 L496.75,5.4375 Z M496.75,3.4375 L496.75,2.4375 L495.75,2.4375 L495.75,3.4375 L496.75,3.4375 Z M496.75,15.4375 L496.75,14.4375 L495.75,14.4375 L495.75,15.4375 L496.75,15.4375 Z M496.75,11.4375 L496.75,10.4375 L495.75,10.4375 L495.75,11.4375 L496.75,11.4375 Z M496.75,7.4375 L496.75,6.4375 L495.75,6.4375 L495.75,7.4375 L496.75,7.4375 Z M498.75,4.4375 L498.75,3.4375 L497.75,3.4375 L497.75,4.4375 L498.75,4.4375 Z M498.75,8.4375 L498.75,7.4375 L497.75,7.4375 L497.75,8.4375 L498.75,8.4375 Z M498.75,12.4375 L498.75,11.4375 L497.75,11.4375 L497.75,12.4375 L498.75,12.4375 Z M500.75,13.4375 L500.75,12.4375 L499.75,12.4375 L499.75,13.4375 L500.75,13.4375 Z M500.75,9.4375 L500.75,8.4375 L499.75,8.4375 L499.75,9.4375 L500.75,9.4375 Z M500.75,5.4375 L500.75,4.4375 L499.75,4.4375 L499.75,5.4375 L500.75,5.4375 Z M500.75,1.4375 L500.75,0.4375 L501.75,0.4375 L501.75,16.4375 L498.75,16.4375 L498.75,15.4375 L497.75,15.4375 L497.75,16.4375 L494.75,16.4375 L494.75,15.4375 L493.75,15.4375 L493.75,14.4375 L494.75,14.4375 L494.75,13.4375 L493.75,13.4375 L493.75,12.4375 L494.75,12.4375 L494.75,11.4375 L493.75,11.4375 L493.75,10.4375 L494.75,10.4375 L494.75,9.4375 L493.75,9.4375 L493.75,8.4375 L494.75,8.4375 L494.75,7.4375 L493.75,7.4375 L493.75,6.4375 L494.75,6.4375 L494.75,5.4375 L493.75,5.4375 L493.75,4.4375 L494.75,4.4375 L494.75,3.4375 L493.75,3.4375 L493.75,2.4375 L494.75,2.4375 L494.75,1.4375 L493.75,1.4375 L493.75,0.4375 L495.75,0.4375 L495.75,1.4375 L496.75,1.4375 L496.75,0.4375 L499.75,0.4375 L499.75,1.4375 L500.75,1.4375 Z" id="ansi"></path>
            </g>
        </g>
    </g>
</svg>