<?xml version="1.0" encoding="UTF-8" standalone="no"?>
<svg width="24px" height="31px" viewBox="0 0 24 31" version="1.1" xmlns="http://www.w3.org/2000/svg" xmlns:xlink="http://www.w3.org/1999/xlink">
    <!-- Generator: Sketch 3.8.3 (29802) - http://www.bohemiancoding.com/sketch -->
    <title>club-mate</title>
    <desc>Created with Sketch.</desc>
    <defs></defs>
    <g id="Site" stroke="none" stroke-width="1" fill="none" fill-rule="evenodd">
        <g id="Projects" transform="translate(-483.000000, -1332.000000)" fill="#000000">
            <g id="Footer" transform="translate(0.000000, -4.171875)">
                <g id="Social">
                    <g id="Club-Mate" transform="translate(483.000000, 1340.000000)">
                        <path d="M12,22.0121 C6.47,22.0121 1.988,17.5291 1.988,12.0001 C1.988,6.4701 6.47,1.9881 12,1.9881 C17.53,1.9881 22.012,6.4701 22.012,12.0001 C22.012,17.5291 17.53,22.0121 12,22.0121 L12,22.0121 Z M23.457,15.5711 L22.49,13.6431 C22.505,13.5511 22.519,13.4591 22.532,13.3671 L24,11.8561 L22.518,10.3551 C22.501,10.2371 22.481,10.1201 22.46,10.0031 L23.368,8.1551 L21.524,7.2001 C21.463,7.0791 21.4,6.9591 21.335,6.8401 L21.624,4.8301 L19.582,4.4931 C19.484,4.3951 19.384,4.2981 19.283,4.2031 L18.937,2.2071 L16.885,2.5191 C16.765,2.4571 16.644,2.3991 16.521,2.3421 L15.572,0.5431 L13.687,1.4881 C13.572,1.4701 13.456,1.4551 13.34,1.4421 L11.856,0.0001 L10.32,1.5161 C10.231,1.5311 10.142,1.5481 10.053,1.5651 L8.155,0.6321 L7.135,2.6031 C7.084,2.6301 7.033,2.6581 6.983,2.6861 L4.83,2.3761 L4.457,4.6381 L4.418,4.6801 L2.207,5.0631 L2.557,7.3661 L0.543,8.4281 L1.587,10.5101 L0,12.1441 L1.636,13.8011 L0.632,15.8451 L2.7,16.9161 L2.376,19.1701 L4.674,19.5491 L5.063,21.7931 L7.366,21.4431 L8.428,23.4571 L10.511,22.4131 L12.144,24.0001 L13.801,22.3631 L15.845,23.3681 L16.916,21.3001 L19.17,21.6241 L19.542,19.3671 C19.558,19.3511 19.574,19.3351 19.589,19.3181 L21.793,18.9371 L21.46,16.7451 C21.488,16.6911 21.515,16.6371 21.542,16.5821 L23.457,15.5711 Z" id="Fill-1"></path>
                        <path d="M17.3424,18.1086 C17.2774,18.1616 17.2124,18.2206 17.1484,18.2676 C17.1004,18.3086 17.0474,18.3506 17.0004,18.3916 C16.8764,18.4856 16.7594,18.5746 16.6294,18.6626 C16.6174,18.6746 16.6054,18.6806 16.5944,18.6916 C16.4524,18.4326 16.3174,18.2436 16.2054,18.0556 C16.1884,18.0276 16.1714,18.0016 16.1554,17.9746 C16.1374,17.9456 16.1204,17.9156 16.1044,17.8846 C15.9874,17.6786 15.8864,17.4486 15.8164,17.1306 C15.9284,17.0886 16.0164,17.0596 16.1044,17.0296 C16.1404,17.0186 16.1694,17.0066 16.2054,16.9946 C16.3174,16.9536 16.4294,16.9066 16.5824,16.8236 C16.5994,16.8116 16.6174,16.8006 16.6294,16.7946 C16.7474,16.7176 16.8414,16.5936 16.8004,16.3936 C16.7594,16.2226 16.8234,16.0166 16.9244,15.8926 C16.9534,15.8576 16.9774,15.8216 17.0004,15.7866 C17.0534,15.6866 17.0714,15.5866 17.0244,15.4686 C16.9774,15.3446 17.0124,15.1736 17.1364,15.1146 C17.1424,15.1086 17.1484,15.1086 17.1484,15.1026 C17.3304,15.0086 17.3184,14.8496 17.3424,14.6906 C17.3484,14.5956 17.3714,14.4956 17.4424,14.4016 C17.6074,14.1896 17.8084,13.9416 17.5844,13.7066 C17.7374,13.0286 17.8194,12.6926 17.9794,12.0146 C17.9314,11.9966 17.9024,11.9856 17.8554,11.9676 L17.6134,11.9436 L17.2114,13.8016 C17.1894,13.8176 17.1684,13.8346 17.1484,13.8536 C17.1004,13.9006 17.0474,13.9536 17.0004,14.0246 C16.9654,14.0596 16.9354,14.1066 16.8944,14.1536 C16.8184,14.2656 16.7294,14.3666 16.6294,14.4486 C16.5054,14.5726 16.3644,14.6666 16.2054,14.7436 C16.1694,14.7606 16.1404,14.7726 16.1044,14.7906 C15.9334,14.8616 15.7514,14.9086 15.5454,14.9376 C15.5624,14.5786 15.6094,13.8716 15.8044,11.9556 L15.7394,11.9436 L15.5964,11.9436 L15.1914,14.4326 C14.8934,14.7116 14.6824,14.9086 14.3254,15.2326 C14.2424,15.1206 14.1604,15.0026 14.0834,14.8966 C13.9184,14.6676 13.7644,14.4576 13.6114,14.2616 C13.2614,13.8116 12.9194,13.4376 12.4964,13.0976 C12.7974,11.9366 13.3404,11.1366 13.3404,11.1366 C13.4994,10.8736 13.4724,10.1526 13.4724,10.1526 L14.1714,10.1526 C14.9384,9.9516 15.5394,9.8046 16.1044,9.5866 C16.1344,9.5746 16.1694,9.5626 16.2054,9.5516 C16.3464,9.4926 16.4874,9.4276 16.6294,9.3626 C16.7534,9.3036 16.8764,9.2386 17.0004,9.1686 C17.0474,9.1386 17.1004,9.1096 17.1484,9.0796 C17.2124,9.0446 17.2774,9.0036 17.3424,8.9616 C17.4894,8.8676 17.6434,8.7556 17.8084,8.6376 C17.9744,8.5126 18.1984,8.2796 17.9124,8.2296 C17.5224,7.9306 15.3804,8.0366 15.3804,8.0366 C14.8494,8.0486 14.5374,8.0606 14.0834,8.0776 L13.7474,8.0896 C13.3884,6.3926 13.1814,5.4376 12.6744,3.9116 C13.1584,3.9526 13.6294,4.0346 14.0834,4.1526 C14.8024,4.3476 15.4804,4.6306 16.1044,5.0016 C16.1344,5.0196 16.1694,5.0426 16.2054,5.0606 C16.3524,5.1486 16.4934,5.2436 16.6294,5.3376 C16.7594,5.4256 16.8764,5.5146 17.0004,5.6086 C17.0474,5.6496 17.1004,5.6916 17.1484,5.7326 C17.2124,5.7856 17.2774,5.8386 17.3424,5.8976 C19.0454,7.3886 20.1244,9.5746 20.1244,12.0026 C20.1244,14.4256 19.0454,16.6176 17.3424,18.1086 M10.0754,12.2156 C10.0584,12.3036 10.0164,12.3976 9.9464,12.4686 C9.8574,12.5506 9.7284,12.5866 9.5694,12.4976 C9.4334,12.4216 9.2564,12.3566 9.0744,12.4096 C9.0214,12.4276 8.9674,12.4566 8.9144,12.4976 C8.6434,12.7046 8.5614,12.7986 8.2604,13.0756 C7.9124,13.3876 7.5064,13.3406 7.0524,13.8006 L6.9814,13.8716 C6.1684,14.7076 5.7504,15.1916 4.9664,16.0336 C4.2644,14.8436 3.8704,13.4706 3.8704,12.0026 C3.8704,9.4276 5.0904,7.1176 6.9814,5.6266 C7.6124,5.1316 8.3194,4.7246 9.0744,4.4296 C9.3154,4.3416 9.5634,4.2586 9.8104,4.1886 C9.5814,5.7836 9.4464,6.7556 9.4914,8.4676 L8.5334,8.6666 L8.5334,8.6666 C7.9634,8.7716 7.4904,8.8616 6.9814,8.9796 C6.6044,9.0676 6.2034,9.1686 5.7264,9.3096 C5.0724,9.4986 4.9894,9.7396 5.5374,9.8756 C6.0384,10.0046 6.5104,10.0696 6.9814,10.1116 C7.6364,10.1706 8.2964,10.1816 9.0744,10.2236 L9.1384,10.2286 C9.1564,10.3936 9.1744,10.4706 9.1914,10.6296 C9.1914,10.6296 10.0304,11.0976 10.0534,11.6566 C10.0534,11.6646 10.0474,11.6706 10.0474,11.6786 C10.0924,11.8416 10.1134,12.0136 10.0754,12.2156 M17.3424,5.3666 C17.2774,5.3136 17.2124,5.2666 17.1484,5.2196 C17.1004,5.1786 17.0474,5.1426 17.0004,5.1016 C16.8764,5.0136 16.7534,4.9306 16.6294,4.8486 C16.4934,4.7596 16.3464,4.6716 16.2054,4.5886 C16.1694,4.5716 16.1344,4.5536 16.1044,4.5356 C15.4744,4.1826 14.7964,3.9116 14.0834,3.7346 C13.4174,3.5636 12.7164,3.4696 11.9914,3.4696 C11.6024,3.4696 11.2074,3.4986 10.8244,3.5516 C10.7654,3.5636 10.7064,3.5696 10.6474,3.5816 C10.5064,3.6046 10.3644,3.6286 10.2234,3.6576 C10.1284,3.6816 10.0344,3.6996 9.9464,3.7226 C9.6454,3.7996 9.3564,3.8876 9.0744,3.9936 C8.3254,4.2646 7.6244,4.6476 6.9814,5.1136 C4.8544,6.6696 3.4694,9.1796 3.4694,12.0026 C3.4694,14.8196 4.8544,17.3306 6.9814,18.8866 C7.6244,19.3516 8.3254,19.7356 9.0744,20.0126 C9.3564,20.1126 9.6454,20.2006 9.9464,20.2776 C10.0344,20.3006 10.1284,20.3186 10.2234,20.3426 C10.3644,20.3716 10.5064,20.3956 10.6474,20.4186 C10.7064,20.4306 10.7654,20.4366 10.8244,20.4486 C11.2074,20.5016 11.6024,20.5306 11.9914,20.5306 C12.7164,20.5306 13.4174,20.4366 14.0834,20.2656 C14.7964,20.0886 15.4744,19.8176 16.1044,19.4696 C16.1344,19.4526 16.1694,19.4286 16.2054,19.4106 C16.3464,19.3286 16.4934,19.2396 16.6294,19.1516 C16.7534,19.0696 16.8764,18.9866 17.0004,18.8986 C17.0474,18.8626 17.1004,18.8216 17.1484,18.7866 C17.2124,18.7336 17.2774,18.6866 17.3424,18.6326 C19.2814,17.0656 20.5304,14.6726 20.5304,12.0026 C20.5304,9.3336 19.2814,6.9346 17.3424,5.3666" id="Fill-4"></path>
                    </g>
                </g>
            </g>
        </g>
    </g>
</svg>