<?xml version="1.0" encoding="UTF-8" standalone="no"?>
<svg width="17px" height="16px" viewBox="0 0 17 16" version="1.1" xmlns="http://www.w3.org/2000/svg" xmlns:xlink="http://www.w3.org/1999/xlink">
    <!-- Generator: Sketch 3.8.3 (29802) - http://www.bohemiancoding.com/sketch -->
    <title>Expand</title>
    <desc>Created with Sketch.</desc>
    <defs></defs>
    <g id="Assets" stroke="none" stroke-width="1" fill="none" fill-rule="evenodd">
        <path d="M9.01953125,7.5 L16.0195312,7.5 C16.2956736,7.5 16.5195312,7.72385763 16.5195312,8 C16.5195312,8.27614237 16.2956736,8.5 16.0195312,8.5 L9.01953125,8.5 L9.01953125,15.5 C9.01953125,15.7761424 8.79567362,16 8.51953125,16 C8.24338888,16 8.01953125,15.7761424 8.01953125,15.5 L8.01953125,8.5 L1.01953125,8.5 C0.743388875,8.5 0.51953125,8.27614237 0.51953125,8 C0.51953125,7.72385763 0.743388875,7.5 1.01953125,7.5 L8.01953125,7.5 L8.01953125,0.5 C8.01953125,0.223857625 8.24338888,0 8.51953125,0 C8.79567362,0 9.01953125,0.223857625 9.01953125,0.5 L9.01953125,7.5 Z" id="Expand" fill="#372522"></path>
    </g>
</svg>