<?xml version="1.0" encoding="UTF-8" standalone="no"?>
<svg width="21px" height="31px" viewBox="0 0 21 31" version="1.1" xmlns="http://www.w3.org/2000/svg" xmlns:xlink="http://www.w3.org/1999/xlink">
    <!-- Generator: Sketch 3.8.3 (29802) - http://www.bohemiancoding.com/sketch -->
    <title>github</title>
    <desc>Created with Sketch.</desc>
    <defs></defs>
    <g id="Site" stroke="none" stroke-width="1" fill="none" fill-rule="evenodd">
        <g id="Projects" transform="translate(-272.000000, -1332.000000)" fill="#372522">
            <g id="Footer" transform="translate(0.000000, -4.171875)">
                <g id="Social">
                    <path d="M282.252128,1342 C276.59105,1342 272,1346.59042 272,1352.25339 C272,1356.78338 274.937542,1360.62604 279.011831,1361.98183 C279.524815,1362.07624 279.711755,1361.75964 279.711755,1361.48773 C279.711755,1361.24477 279.702943,1360.59961 279.697908,1359.74421 C276.845968,1360.36357 276.244235,1358.36954 276.244235,1358.36954 C275.777829,1357.18496 275.105599,1356.86961 275.105599,1356.86961 C274.174675,1356.23389 275.176095,1356.24648 275.176095,1356.24648 C276.20521,1356.31886 276.746519,1357.30329 276.746519,1357.30329 C277.661078,1358.86994 279.146529,1358.41738 279.730638,1358.15491 C279.823794,1357.49275 280.088783,1357.04082 280.381467,1356.78464 C278.104825,1356.52595 275.711109,1355.64601 275.711109,1351.71711 C275.711109,1350.59799 276.110796,1349.68217 276.76666,1348.96588 C276.660916,1348.70656 276.309066,1347.6636 276.867369,1346.25242 C276.867369,1346.25242 277.727797,1345.97673 279.686578,1347.30356 C280.504206,1347.07571 281.381629,1346.96241 282.253387,1346.95801 C283.124516,1346.96241 284.001309,1347.07571 284.820195,1347.30356 C286.777717,1345.97673 287.636887,1346.25242 287.636887,1346.25242 C288.196449,1347.6636 287.844598,1348.70656 287.739484,1348.96588 C288.396607,1349.68217 288.793147,1350.59799 288.793147,1351.71711 C288.793147,1355.65608 286.395654,1356.5228 284.112089,1356.77646 C284.479675,1357.09306 284.807607,1357.71871 284.807607,1358.67544 C284.807607,1360.04571 284.795018,1361.15161 284.795018,1361.48773 C284.795018,1361.76216 284.98007,1362.08128 285.499978,1361.9812 C289.57112,1360.62227 292.506144,1356.78212 292.506144,1352.25339 C292.506144,1346.59042 287.915094,1342 282.252128,1342" id="GitHub"></path>
                </g>
            </g>
        </g>
    </g>
</svg>