<?xml version="1.0" encoding="UTF-8" standalone="no"?>
<svg width="20px" height="31px" viewBox="0 0 20 31" version="1.1" xmlns="http://www.w3.org/2000/svg" xmlns:xlink="http://www.w3.org/1999/xlink">
    <!-- Generator: Sketch 3.8.3 (29802) - http://www.bohemiancoding.com/sketch -->
    <title>instagram</title>
    <desc>Created with Sketch.</desc>
    <defs></defs>
    <g id="Site" stroke="none" stroke-width="1" fill="none" fill-rule="evenodd">
        <g id="Projects" transform="translate(-443.000000, -1332.000000)" fill="#372522">
            <g id="Footer" transform="translate(0.000000, -4.171875)">
                <g id="Social">
                    <path d="M452.99998,1343.80184 C455.670108,1343.80184 455.986359,1343.812 457.040818,1343.86011 C458.015809,1343.90461 458.545301,1344.06752 458.897714,1344.20443 C459.364448,1344.38583 459.697609,1344.60257 460.047521,1344.95248 C460.397433,1345.30239 460.614168,1345.63555 460.795535,1346.10229 C460.932483,1346.4547 461.095391,1346.98419 461.139889,1347.95914 C461.188,1349.01364 461.198162,1349.32989 461.198162,1352.00002 C461.198162,1354.67015 461.188,1354.9864 461.139889,1356.04086 C461.095391,1357.01585 460.932483,1357.54534 460.795535,1357.89775 C460.614168,1358.36449 460.397433,1358.69765 460.047521,1359.04756 C459.697609,1359.39747 459.364448,1359.61421 458.897714,1359.79557 C458.545301,1359.93252 458.015809,1360.09543 457.040818,1360.13993 C455.986518,1360.18804 455.670267,1360.1982 452.99998,1360.1982 C450.329693,1360.1982 450.013443,1360.18804 448.959142,1360.13993 C447.984152,1360.09543 447.454659,1359.93252 447.102286,1359.79557 C446.635512,1359.61421 446.302351,1359.39747 445.952439,1359.04756 C445.602527,1358.69765 445.385792,1358.36449 445.204426,1357.89775 C445.067478,1357.54534 444.904569,1357.01585 444.860071,1356.0409 C444.811961,1354.9864 444.801799,1354.67015 444.801799,1352.00002 C444.801799,1349.32989 444.811961,1349.01364 444.860071,1347.95918 C444.904569,1346.98419 445.067478,1346.4547 445.204426,1346.10229 C445.385792,1345.63555 445.602527,1345.30239 445.952439,1344.95248 C446.302351,1344.60257 446.635512,1344.38583 447.102286,1344.20443 C447.454659,1344.06752 447.984152,1343.90461 448.959102,1343.86011 C450.013602,1343.812 450.329852,1343.80184 452.99998,1343.80184 M452.99998,1342 C450.284123,1342 449.943619,1342.01151 448.877013,1342.06018 C447.81259,1342.10876 447.085694,1342.27779 446.44958,1342.52501 C445.791992,1342.78056 445.234316,1343.1225 444.678387,1343.67843 C444.122457,1344.23436 443.780524,1344.79203 443.524967,1345.44962 C443.277746,1346.08573 443.108725,1346.81263 443.060138,1347.87705 C443.011472,1348.94362 443,1349.28416 443,1352.00002 C443,1354.71588 443.011472,1355.05642 443.060138,1356.12299 C443.108725,1357.18741 443.277746,1357.91431 443.524967,1358.55042 C443.780524,1359.20797 444.122457,1359.76568 444.678387,1360.32161 C445.234316,1360.87754 445.791992,1361.21948 446.44958,1361.47503 C447.085694,1361.72225 447.81259,1361.89128 448.877013,1361.93986 C449.943619,1361.98853 450.284123,1362 452.99998,1362 C455.715837,1362 456.056381,1361.98853 457.122948,1361.93986 C458.187371,1361.89128 458.914267,1361.72225 459.55038,1361.47503 C460.207968,1361.21948 460.765644,1360.87754 461.321574,1360.32161 C461.877503,1359.76568 462.219436,1359.20801 462.474993,1358.55042 C462.722214,1357.91431 462.891236,1357.18741 462.939822,1356.12299 C462.988488,1355.05642 463,1354.71588 463,1352.00002 C463,1349.28416 462.988488,1348.94362 462.939822,1347.87705 C462.891236,1346.81263 462.722214,1346.08573 462.474993,1345.44962 C462.219436,1344.79203 461.877503,1344.23436 461.321574,1343.67843 C460.765644,1343.1225 460.207968,1342.78056 459.55038,1342.52501 C458.914267,1342.27779 458.187371,1342.10876 457.122948,1342.06018 C456.056381,1342.01151 455.715837,1342 452.99998,1342 M452.99998,1346.86487 C450.163927,1346.86487 447.864828,1349.16397 447.864828,1352.00002 C447.864828,1354.83607 450.163927,1357.13517 452.99998,1357.13517 C455.836034,1357.13517 458.135132,1354.83607 458.135132,1352.00002 C458.135132,1349.16397 455.836034,1346.86487 452.99998,1346.86487 L452.99998,1346.86487 Z M452.99998,1355.33337 C451.159042,1355.33337 449.666627,1353.84096 449.666627,1352.00002 C449.666627,1350.15908 451.159042,1348.66667 452.99998,1348.66667 C454.840918,1348.66667 456.333333,1350.15908 456.333333,1352.00002 C456.333333,1353.84096 454.840918,1355.33337 452.99998,1355.33337 L452.99998,1355.33337 Z M459.537995,1346.66199 C459.537995,1347.32474 459.000762,1347.86201 458.338013,1347.86201 C457.675265,1347.86201 457.137992,1347.32474 457.137992,1346.66199 C457.137992,1345.99924 457.675265,1345.462 458.338013,1345.462 C459.000762,1345.462 459.537995,1345.99924 459.537995,1346.66199" id="Instagram"></path>
                </g>
            </g>
        </g>
    </g>
</svg>