<?xml version="1.0" encoding="UTF-8" standalone="no"?>
<svg width="20px" height="31px" viewBox="0 0 20 31" version="1.1" xmlns="http://www.w3.org/2000/svg" xmlns:xlink="http://www.w3.org/1999/xlink">
    <!-- Generator: Sketch 3.8.3 (29802) - http://www.bohemiancoding.com/sketch -->
    <title>linkedin</title>
    <desc>Created with Sketch.</desc>
    <defs></defs>
    <g id="Site" stroke="none" stroke-width="1" fill="none" fill-rule="evenodd">
        <g id="Projects" transform="translate(-313.000000, -1332.000000)" fill="#372522">
            <g id="Footer" transform="translate(0.000000, -4.171875)">
                <g id="Social">
                    <path d="M330.042778,1359.04222 L327.076667,1359.04222 L327.076667,1354.40056 C327.076667,1353.29389 327.057778,1351.87 325.535556,1351.87 C323.991667,1351.87 323.756111,1353.07611 323.756111,1354.32167 L323.756111,1359.04222 L320.793333,1359.04222 L320.793333,1349.49778 L323.636667,1349.49778 L323.636667,1350.80278 L323.677778,1350.80278 C324.073333,1350.05222 325.041111,1349.26111 326.483889,1349.26111 C329.487778,1349.26111 330.042778,1351.23722 330.042778,1353.80778 L330.042778,1359.04222 L330.042778,1359.04222 Z M317.448889,1348.19389 C316.496111,1348.19389 315.727778,1347.42333 315.727778,1346.47333 C315.727778,1345.52389 316.496111,1344.75333 317.448889,1344.75333 C318.397778,1344.75333 319.167778,1345.52389 319.167778,1346.47333 C319.167778,1347.42333 318.397778,1348.19389 317.448889,1348.19389 L317.448889,1348.19389 Z M315.963333,1359.04222 L318.932778,1359.04222 L318.932778,1349.49778 L315.963333,1349.49778 L315.963333,1359.04222 Z M331.52,1342 L314.475,1342 C313.661111,1342 313,1342.64556 313,1343.44222 L313,1360.55667 C313,1361.35333 313.661111,1362 314.475,1362 L331.52,1362 C332.335556,1362 332.999444,1361.35333 332.999444,1360.55667 L332.999444,1343.44222 C332.999444,1342.64556 332.335556,1342 331.52,1342 L331.52,1342 Z" id="LinkedIn"></path>
                </g>
            </g>
        </g>
    </g>
</svg>