<?xml version="1.0" encoding="UTF-8" standalone="no"?>
<svg width="30px" height="31px" viewBox="0 0 30 31" version="1.1" xmlns="http://www.w3.org/2000/svg" xmlns:xlink="http://www.w3.org/1999/xlink">
    <!-- Generator: Sketch 3.8.3 (29802) - http://www.bohemiancoding.com/sketch -->
    <title>soundcloud</title>
    <desc>Created with Sketch.</desc>
    <defs></defs>
    <g id="Site" stroke="none" stroke-width="1" fill="none" fill-rule="evenodd">
        <g id="Projects" transform="translate(-353.000000, -1332.000000)" fill="#372522">
            <g id="Footer" transform="translate(0.000000, -4.171875)">
                <g id="Social">
                    <path d="M365.098216,1346.74819 C364.802323,1346.74819 364.562502,1346.98801 364.562502,1347.2839 L364.36902,1354.27791 L364.36902,1355.31961 L364.562502,1358.10639 L364.568841,1358.10639 C364.606966,1358.36497 364.829109,1358.56363 365.098216,1358.56363 C365.394109,1358.56363 365.63393,1358.3238 365.63393,1358.02791 L365.812501,1355.4089 L365.812501,1353.27247 L365.63393,1347.2839 C365.63393,1346.98801 365.394109,1346.74819 365.098216,1346.74819 Z M362.251905,1347.70056 C361.999405,1347.70056 361.794673,1347.90529 361.794673,1348.15779 L361.556548,1354.56065 L361.556548,1355.23029 L361.794673,1358.10636 C361.794673,1358.35895 361.999405,1358.56368 362.251905,1358.56368 C362.504405,1358.56368 362.709137,1358.35895 362.709137,1358.10636 L363.00003,1354.70949 L362.709137,1348.15779 C362.709137,1347.90529 362.504405,1347.70056 362.251905,1347.70056 Z M359.394764,1347.78985 C359.142264,1347.78985 358.937532,1347.99458 358.937532,1348.24708 L358.699407,1354.06207 L358.699407,1355.28984 L358.937532,1358.24752 C358.937532,1358.42216 359.142264,1358.56368 359.394764,1358.56368 C359.647264,1358.56368 359.851996,1358.42216 359.851996,1358.24752 L360.15771,1355.33448 L360.15771,1353.96547 L359.851996,1348.24708 C359.851996,1347.99458 359.647264,1347.78985 359.394764,1347.78985 Z M356.500426,1349.57556 C356.284891,1349.57556 356.110159,1349.75029 356.110159,1349.96583 L355.827391,1354.67975 L355.827391,1355.0369 L356.110159,1358.15823 C356.110159,1358.37386 356.284891,1358.54859 356.500426,1358.54859 C356.715962,1358.54859 356.890694,1358.37386 356.890694,1358.15823 L357.173462,1355.0369 L357.173462,1354.67975 L356.890694,1349.96583 C356.890694,1349.75029 356.715962,1349.57556 356.500426,1349.57556 Z M353.69491,1352.75202 C353.5125,1352.75202 353.364553,1352.86854 353.364553,1353.0122 L353,1354.8955 L353,1355.11872 L353.364553,1356.93006 C353.364553,1357.07381 353.5125,1357.19023 353.69491,1357.19023 C353.877321,1357.19023 354.025267,1357.07381 354.025267,1356.93006 L354.389821,1355.11872 L354.389821,1354.8955 L354.025267,1353.0122 C354.025267,1352.86854 353.877321,1352.75202 353.69491,1352.75202 Z M378.938574,1350.89241 C378.382056,1350.89241 377.850985,1350.99937 377.367503,1351.19134 C377.044289,1347.72187 373.974738,1345 370.230365,1345 C369.314026,1345 368.420902,1345.17071 367.631973,1345.46009 C367.325366,1345.57268 367.244027,1345.68804 367.241081,1345.91277 L367.241081,1358.13169 C367.244295,1358.3674 367.437241,1358.55044 367.679831,1358.57347 C367.690188,1358.57446 378.938574,1358.57347 378.938574,1358.57347 C381.181698,1358.57347 383,1356.86901 383,1354.74258 C383,1352.61607 381.181698,1350.89241 378.938574,1350.89241 Z" id="SoundCloud"></path>
                </g>
            </g>
        </g>
    </g>
</svg>