<?xml version="1.0" encoding="UTF-8" standalone="no"?>
<svg width="19px" height="31px" viewBox="0 0 19 31" version="1.1" xmlns="http://www.w3.org/2000/svg" xmlns:xlink="http://www.w3.org/1999/xlink">
    <!-- Generator: Sketch 3.8.3 (29802) - http://www.bohemiancoding.com/sketch -->
    <title>twitter</title>
    <desc>Created with Sketch.</desc>
    <defs></defs>
    <g id="Site" stroke="none" stroke-width="1" fill="none" fill-rule="evenodd">
        <g id="Projects" transform="translate(-403.000000, -1332.000000)" fill="#372522">
            <g id="Footer" transform="translate(0.000000, -4.171875)">
                <g id="Social">
                    <path d="M421.457498,1346.77567 C420.77838,1347.07685 420.04856,1347.2804 419.282553,1347.37195 C420.064426,1346.90327 420.664823,1346.16116 420.947569,1345.27694 C420.215926,1345.71085 419.405495,1346.026 418.542943,1346.19587 C417.852146,1345.4599 416.868002,1345 415.778875,1345 C413.687512,1345 411.991979,1346.69546 411.991979,1348.78669 C411.991979,1349.08348 412.025534,1349.37251 412.090076,1349.64965 C408.94287,1349.49174 406.152607,1347.98416 404.284916,1345.69316 C403.958961,1346.25244 403.772219,1346.90293 403.772219,1347.5969 C403.772219,1348.91065 404.440804,1350.06972 405.456881,1350.74877 C404.836095,1350.72912 404.252239,1350.55879 403.741635,1350.27516 C403.741365,1350.29096 403.741365,1350.30683 403.741365,1350.32276 C403.741365,1352.1575 405.04667,1353.68803 406.778997,1354.03586 C406.461211,1354.12242 406.126682,1354.16866 405.781283,1354.16866 C405.53729,1354.16866 405.300048,1354.14496 405.068882,1354.10074 C405.550725,1355.60521 406.949198,1356.70001 408.606248,1356.73059 C407.31026,1357.7462 405.677448,1358.35159 403.90333,1358.35159 C403.597696,1358.35159 403.296249,1358.3337 403,1358.29873 C404.675818,1359.37314 406.666317,1360 408.804805,1360 C415.770031,1360 419.578869,1354.22983 419.578869,1349.2258 C419.578869,1349.06161 419.575223,1348.89829 419.567932,1348.73592 C420.307744,1348.20203 420.949797,1347.53506 421.457498,1346.77567" id="Twitter"></path>
                </g>
            </g>
        </g>
    </g>
</svg>